<svg width="50px" height="13px" version="1.1" viewBox="0 0 500.03 132.81" xmlns="http://www.w3.org/2000/svg">
 <g transform="translate(356.32 804.65)">
  <g transform="translate(-413.73 -741.94)" stroke="#f2f2f2">
   <path d="m119.69 74.299c-4.1705-.73552-7.6844-3.0784-10.007-6.6724-3.6503-5.6477-2.88-12.906 1.8741-17.658 4.6955-4.6938 11.403-5.6884 17.324-2.5688 4.2811 2.2557 7.5315 7.698 7.5315 12.61 0 6.1451-4.281 11.923-10.177 13.737-1.9532.60066-4.8733.84705-6.5449.55224zm6.2803-5.8377c1.6739-.80128 3.3277-2.4463 4.2833-4.2608.67845-1.2881.7438-1.6563.7438-4.1903 0-2.5072-.0722-2.9253-.74093-4.2869-2.6819-5.4615-10.257-6.8243-14.706-2.6455-.79433.74622-1.6212 1.879-2.0669 2.8314-.64137 1.3708-.74278 1.9126-.74278 3.9688 0 2.0278.10487 2.605.70648 3.8884 1.1142 2.377 3.4619 4.426 6.0404 5.2719.36381.11935 1.6735.18084 2.9104.13665 1.7087-.06104 2.5668-.23248 3.5719-.71361zm-29.504-25.379c-2.3615-.41082-3.6918-1.2934-7.3505-4.8765-4.1324-4.0471-5.0662-5.5656-5.2826-8.5905-.28261-3.9498 1.0974-6.5516 5.0515-9.5236 9.7661-7.3404 20.542-10.934 32.852-10.957 11.491-.021034 21.478 2.9738 30.956 9.2833 3.7217 2.4775 5.433 4.1101 6.4247 6.1295.6437 1.3107.71902 1.7551.71902 4.2422 0 3.9636-.40276 4.6913-5.2199 9.4315-4.4503 4.3792-5.4412 4.9168-9.0676 4.9196-2.6028.0019-3.6953-.40008-6.8579-2.5239-3.0407-2.0419-6.1419-3.4856-9.3595-4.3569-2.3384-.63328-3.0056-.69546-7.4628-.69546s-5.1244.06217-7.4628.69546c-3.2176.87139-6.3188 2.315-9.3595 4.3569-1.298.87164-2.8362 1.7665-3.4183 1.9886-1.3804.52661-3.6638.73748-5.1626.47676zm3.2618-5.3915c.4732-.19771 1.681-.92133 2.6841-1.608 6.0595-4.1485 13.442-6.2237 20.913-5.8784 6.7118.31024 12.031 2.0916 18.065 6.0502 4.2776 2.8063 5.6512 2.5205 10.154-2.1132 2.9869-3.0739 3.5937-4.2112 3.2698-6.1283-.26019-1.5401-1.0171-2.5298-3.1026-4.0567-5.5112-4.0352-11.046-6.6686-17.273-8.2187-4.8996-1.2196-6.308-1.3683-12.832-1.3549-5.7461.0118-6.4786.06799-9.6573.74073-6.7434 1.4272-12.748 3.922-18.177 7.5525-3.481 2.3277-4.6072 3.5321-4.8563 5.1935-.33077 2.2057.14295 3.1174 3.277 6.3064 3.6602 3.7244 5.2551 4.4682 7.5369 3.5148zm-29.809-18.968c-2.4645-.41353-4.0632-1.4541-7.5108-4.889-2.634-2.6243-3.3932-3.5581-4.0721-5.0089-1.1331-2.4214-1.3014-4.7083-.52954-7.1949.74606-2.4033 1.8945-3.8883 4.9966-6.4608 11.524-9.5564 25.397-16.221 40.144-19.286 7.2557-1.5077 9.561-1.7173 18.922-1.7209 8.9949-.0034 10.959.15924 17.727 1.4679 14.635 2.8298 28.662 9.3135 40.076 18.524 3.9163 3.1602 4.9238 4.199 5.8774 6.0605.67782 1.3232.74545 1.7072.74545 4.2333 0 4.0096-.49242 4.9534-4.8396 9.2762-3.703 3.6822-5.1043 4.5666-7.965 5.0273-3.3308.5364-5.6597-.34949-9.9092-3.7693-9.3858-7.5533-20.192-12.267-32.452-14.156-4.3198-.66558-14.244-.65553-18.653.018891-12.48 1.9087-23.089 6.5928-32.939 14.543-2.6876 2.1692-4.1247 2.9381-6.2123 3.3241-1.7116.31641-1.5872.31602-3.4067.01072zm4.0225-5.5571c.48805-.29754 1.8573-1.3306 3.0427-2.2957 7.9055-6.4361 18.764-11.688 28.833-13.947 6.2692-1.4061 8.0208-1.5813 15.92-1.5926 8.312-.011933 10.631.23919 17.33 1.8763 9.9746 2.4377 19.916 7.3498 27.781 13.727 2.8188 2.2855 3.7468 2.7744 5.2659 2.7744 1.7191 0 2.3752-.41764 5.5014-3.5021 3.3278-3.2833 3.9512-4.3626 3.7174-6.4365-.17428-1.5462-1.008-2.5886-4.061-5.0775-23.256-18.959-55.036-24.654-83.67-14.992-9.1625 3.0916-18.863 8.3819-26.237 14.309-4.6441 3.7328-5.3822 4.9134-4.7416 7.5835.27903 1.1631.66851 1.7041 2.863 3.9763 3.2131 3.3269 4.436 4.1392 6.2299 4.1378.87988-.000529 1.6408-.18603 2.2246-.54198z" fill="#d0d0d0"/>
   <path d="m119.75 74.115c-6.7368-1.1264-12.171-7.384-12.171-14.015 0-7.0607 5.1876-13.057 12.245-14.155 5.1152-.79524 10.563 1.528 13.616 5.8065 4.0363 5.6564 3.4731 13.291-1.3383 18.14-3.2157 3.241-8.145 4.9261-12.352 4.2227zm6.4541-5.6045c1.9732-.97142 3.3385-2.3902 4.3607-4.5316.59892-1.2547.69463-1.8015.69463-3.9687 0-2.2006-.0931-2.7151-.74799-4.1321-.89204-1.9303-2.4233-3.4977-4.4114-4.5155-1.3229-.67731-1.7078-.74505-4.2333-.74505-2.6576 0-2.8501.03901-4.4366.89934-2.9458 1.5974-4.6918 4.2203-4.9989 7.51-.40365 4.3225 2.5652 8.7665 6.7535 10.109 2.0412.65446 4.9447.39562 7.0194-.62576zm-30.525-25.841c-2.2519-.63064-3.3339-1.4162-6.7872-4.928-3.9255-3.992-4.6341-5.2196-4.8054-8.3255-.21757-3.9448 1.0004-6.2081 4.9367-9.1732 8.186-6.1665 17.456-9.759 27.778-10.765 12.406-1.2092 25.299 2.0916 35.893 9.1885 4.7584 3.1879 6.398 5.1638 6.9853 8.4182.35273 1.9547.025 4.1974-.88513 6.0575-.96085 1.9637-7.2241 8.1028-9.1804 8.9985-3.5848 1.6412-6.5719 1.1423-11.097-1.8532-3.2817-2.1726-5.7658-3.2962-9.4873-4.2913-2.2539-.60265-3.0433-.67795-7.1633-.68336-4.1596-.0055-4.8877.06338-7.1633.67728-3.6845.99399-6.2709 2.1526-9.1816 4.1129-1.4151.95306-3.1558 1.9588-3.8682 2.235-1.7917.69461-4.2012.82846-5.9744.33189zm4.0459-4.7142c.4732-.19771 1.6898-.92894 2.7035-1.625 5.6705-3.8933 12.345-5.9543 19.274-5.952 7.0116.0024 12.905 1.739 18.75 5.5252 5.195 3.3653 6.171 3.2972 10.331-.72057 3.3955-3.2794 4.156-4.4395 4.156-6.3389 0-2.6143-.9207-3.7097-5.8208-6.9257-5.4616-3.5845-12.117-6.143-19.05-7.3234-3.273-.55727-9.9272-.74574-13.361-.37845-5.983.63988-11.912 2.3367-17.21 4.9254-3.5862 1.7523-8.1458 4.7295-9.4442 6.1667-1.5391 1.7036-1.8684 3.9489-.85854 5.8531.1956.36883 1.6527 1.9573 3.238 3.53 3.5497 3.5215 5.0587 4.1968 7.2925 3.2634zm-30.313-19.507c-2.0794-.49008-3.5083-1.5229-7.0019-5.0612-4.0282-4.0797-4.5965-5.0504-4.7811-8.1678-.23392-3.9486.96857-6.2332 5.1218-9.7309 13.592-11.447 30.788-18.754 48.93-20.79 19.084-2.1425 38.723 1.8348 55.479 11.236 5.8879 3.3033 14.375 9.5084 16.848 12.317 1.8427 2.0934 2.6981 5.2874 2.1398 7.9898-.53694 2.5993-1.4182 3.9401-4.8562 7.3886-2.6443 2.6523-3.5476 3.3833-5.0614 4.0962-1.6366.7707-2.0942.86706-4.0917.86167-3.037-.0082-4.4774-.61964-7.8052-3.3132-5.6589-4.5803-13.064-8.8365-19.477-11.196-17-6.2526-36.451-5.2083-52.487 2.818-5.2876 2.6465-7.8119 4.3003-14.422 9.4487-2.6381 2.0547-5.6201 2.7895-8.5339 2.1027zm4.1106-4.8382c.46827-.19961 1.9747-1.2694 3.3477-2.3773 10.365-8.364 22.574-13.549 36.308-15.42 4.425-.60281 12.962-.60076 17.419.00418 8.8502 1.2011 15.156 3.1057 22.886 6.9125 5.0822 2.5027 8.5788 4.7109 13.313 8.4074 2.6708 2.0856 3.4747 2.5768 4.4581 2.7243 2.1653.32471 3.0823-.16602 6.3952-3.4224 3.215-3.1602 3.6365-3.7469 3.9069-5.4377.39722-2.4841-.91019-4.1017-6.9534-8.6036-12.784-9.5233-27.273-15.213-43.609-17.125-3.7481-.4387-14.502-.43918-18.256-.000821-11.459 1.338-20.89 4.146-30.822 9.177-7.8274 3.9647-17.751 11.069-19.068 13.65-.66843 1.3102-.67182 3.3856-.0076 4.6754.6605 1.2827 5.761 6.2813 6.9247 6.7863 1.145.49686 2.6615.51711 3.757.05017z" fill="#fff"/>
   <path d="m118.2 73.615c-4.7677-1.2822-8.9363-5.5843-10.106-10.43-.84007-3.4801-.11758-7.7355 1.8226-10.735 5.5516-8.5821 18.14-8.6215 23.848-.07463 2.9423 4.4061 2.9681 10.727.0621 15.194-1.9113 2.9381-4.7117 4.9922-8.2298 6.0366-1.7809.52869-5.4467.53287-7.3967.0084zm5.4012-4.1034c2.1362-.39489 3.7457-1.2687 5.1993-2.8228 2.8702-3.0685 3.5633-6.941 1.9036-10.636-.89798-1.9992-1.7675-3.0612-3.3626-4.1069-4.992-3.2725-11.525-1.5038-14.144 3.8294-.63287 1.2886-.71557 1.7628-.71557 4.1028 0 2.3432.0823 2.8133.71901 4.1099 1.3385 2.7254 4.2051 4.9559 7.0982 5.523 1.6398.32144 1.5676.32143 3.3022.000794zm-28.364-27.08c-1.7896-.55956-2.6808-1.2523-6.2276-4.8407-4.1828-4.2319-4.824-5.4004-4.8327-8.8069-.0051-2.0194.08478-2.4384.86226-4.0176 1.0564-2.1459 2.4522-3.4529 6.7695-6.3388 7.0262-4.6966 14.61-7.4928 23.536-8.6778 1.1383-.15112 4.1149-.27421 6.6146-.27354 11.315.00304 21.325 3.0342 30.738 9.3078 3.5404 2.3597 5.25 4.0141 6.1643 5.9654.62405 1.3317.71394 1.8475.70414 4.0402-.0168 3.7632-.38178 4.4112-5.1031 9.0608-4.4462 4.3786-5.4744 4.9621-8.7442 4.9621-2.5531 0-3.9658-.51441-6.963-2.5354-10.439-7.0391-23.324-7.0391-33.763 0-1.4461.97507-3.1993 1.9444-3.8961 2.1541-1.549.46617-4.3692.46636-5.8594.000265zm6.8827-5.7703c7.2733-4.8403 15.095-6.8914 23.019-6.0369 5.3747.57953 10.013 2.1374 14.307 4.8057 4.337 2.695 4.7085 2.8717 6.0508 2.8782 1.9577.0096 2.9068-.55536 5.8798-3.4996 3.2205-3.1894 3.9896-4.5438 3.7464-6.5973-.21829-1.8431-.83245-2.7097-3.1743-4.4791-6.5392-4.9408-14.395-8.1655-22.881-9.392-3.7846-.54703-10.73-.5379-14.47.01902-7.6294 1.1363-14.625 3.791-20.77 7.8821-4.2382 2.8215-5.2917 4.0984-5.2917 6.4138 0 1.9255.63575 2.9953 3.5163 5.9174 3.1648 3.2105 4.1779 3.7983 6.3233 3.6689 1.3138-.0792 1.79-.28022 3.7435-1.5802zm-34.003-18.806c-1.8938-.79832-2.9007-1.6049-6.0559-4.8507-2.947-3.0317-3.5197-3.8945-4.1072-6.1879-.50923-1.9877-.37306-3.7543.46264-6.0018.93485-2.5141 5.2272-6.398 12.261-11.094 11.92-7.9585 25.031-12.823 39.952-14.821 4.8601-.65108 17.63-.65108 22.49 0 17.567 2.3534 33.383 9.0298 46.629 19.683 3.4266 2.756 4.6782 4.0733 5.5424 5.8332.65933 1.3427.7457 1.8103.7457 4.0377 0 3.6832-.68967 4.9595-4.9603 9.1797-4.2176 4.1678-5.253 4.7054-9.0626 4.7054-2.3558 0-2.8053-.07964-4.101-.72659-.80036-.39963-2.6458-1.686-4.101-2.8587-9.7675-7.8709-21.562-12.866-33.991-14.397-6.2399-.76837-14.845-.43962-21.038.80372-10.508 2.1097-20.447 6.7969-29.108 13.727-3.7269 2.982-4.6264 3.3936-7.6729 3.5107-2.0455.07862-2.5931.0021-3.8837-.54183zm5.7357-4.218c.29104-.14602 1.3031-.88368 2.249-1.6392 8.4971-6.7873 16.453-11.004 25.994-13.776 11.049-3.211 23.604-3.6312 34.993-1.1713 10.52 2.2723 20.522 7.0252 29.304 13.925 3.5191 2.7649 3.9529 2.993 5.6973 2.995 1.9891.0024 2.964-.60283 6.0705-3.7683 2.8966-2.9516 3.5101-3.981 3.5101-5.8894 0-1.9616-.75619-3.0395-3.9783-5.6708-20.369-16.634-47.092-23.323-72.929-18.254-12.714 2.4942-25.159 8.0214-35.426 15.733-6.8448 5.1411-8.1835 7.1891-6.7552 10.334.5419 1.1932 4.5564 5.5135 6.1483 6.6167 1.6166 1.1203 3.5843 1.3375 5.1229.56559z" fill="#8f8f8f"/>
   <path d="m118.6 73.613c-6.0644-1.4679-10.761-7.4081-10.747-13.593.009-3.9218 1.3885-7.1712 4.1955-9.8811 5.8336-5.6318 14.481-5.4768 19.985.3582 3.3778 3.5807 4.5887 8.1128 3.4539 12.927-1.7145 7.2737-9.5066 11.975-16.887 10.188zm7.3504-4.6953c2.0282-.92852 3.704-2.5751 4.7188-4.6365.7876-1.5999.85987-1.9584.85987-4.2658 0-2.206-.0928-2.72-.74716-4.1358-.89436-1.9352-2.6786-3.7597-4.6768-4.7823-1.3227-.67689-1.7082-.74472-4.2333-.74472-2.5344 0-2.9021.06529-4.191.74416-3.0479 1.6053-4.8166 3.9895-5.3749 7.2457-.2725 1.5891-.25435 2.1155.12611 3.6572.914 3.7038 3.7458 6.6432 7.253 7.5287 1.6637.42005 4.6499.129 6.2655-.61067zm-30.078-26.377c-1.9886-.50207-3.2985-1.4423-6.579-4.7221-2.2018-2.2014-3.6009-3.8377-4.101-4.7964-.69517-1.3326-.75911-1.6892-.75911-4.2333 0-2.5022.07041-2.9115.7088-4.1213 2.0444-3.8741 11.122-9.6325 19.532-12.39 9.3934-3.0801 18.577-3.5951 28.51-1.5991 6.3998 1.2859 13.542 4.2661 19.115 7.9755 3.8748 2.5794 5.3691 4.0012 6.3948 6.0848.75724 1.5382.85306 1.9815.83986 3.8854-.0254 3.6662-.56606 4.6681-4.8298 8.9499-4.5068 4.5259-5.5422 5.1016-9.1517 5.0884-2.836-.01032-3.4704-.2488-7.0354-2.645-2.9905-2.01-5.9129-3.3333-9.4562-4.282-2.2909-.61339-3.0425-.685-7.1886-.685-4.1461 0-4.8977.07161-7.1886.685-3.5433.9487-6.4657 2.2721-9.4562 4.282-1.4002.9411-3.0126 1.9061-3.5831 2.1445-1.2468.52095-4.391.72724-5.7716.37868zm3.481-4.2186c.49152-.14097 1.8656-.90971 3.0535-1.7083 6.5657-4.414 12.75-6.1703 20.781-5.902 4.4851.14985 7.1579.69155 11.29 2.2881 1.9577.75649 2.9575 1.3073 7.8504 4.3246 3.3462 2.0635 4.7567 1.6967 8.8736-2.3074 3.3587-3.2667 4.0082-4.2715 4.0082-6.2005 0-2.5576-.89854-3.6846-5.263-6.6009-13.993-9.3497-31.631-11.085-47.49-4.6718-5.5363 2.2388-12.102 6.4841-13.383 8.6539-.50504.85518-.65947 1.4755-.64374 2.5857.0263 1.8565.43151 2.5848 2.8069 5.0449 4.3261 4.4802 5.6358 5.2053 8.1169 4.4938zm-30.152-20.197c-2.0705-.58739-3.4411-1.6071-6.8821-5.1202-4.0008-4.0846-4.344-4.7608-4.344-8.558 0-2.1871.09419-2.7146.72519-4.0616.91226-1.9474 2.8974-3.8843 7.6092-7.4243 13.311-10 28.476-16.052 45.244-18.053 5.2684-.62891 15.404-.62654 20.638.0048 11.515 1.389 21.269 4.3209 31.353 9.4237 5.4215 2.7434 9.1214 5.0419 13.927 8.6516 7.0751 5.3143 8.503 7.253 8.5367 11.591.0144 1.8554-.0894 2.3414-.84119 3.9374-.69562 1.4768-1.4445 2.4057-3.9641 4.9177-4.0767 4.0643-5.6486 4.9033-9.1862 4.9033-3.0122 0-4.281-.55673-7.8109-3.4272-5.6238-4.5733-13.092-8.8209-19.711-11.212-8.4368-3.0472-18.265-4.4325-26.877-3.7884-14.351 1.0732-26.994 6.018-37.946 14.842-1.4552 1.1724-3.2852 2.4393-4.0667 2.8153-1.7146.82495-4.5812 1.0747-6.403.55784zm4.5268-4.3629c.50371-.2609 2.1065-1.4119 3.5617-2.5578 19.923-15.688 45.658-19.894 69.189-11.309 6.8072 2.4837 14.648 6.9425 20.47 11.64 4.766 3.8458 6.3779 3.6912 11.135-1.0684 2.8136-2.8152 3.4183-3.6711 3.7163-5.2597.42912-2.2874-.76292-4.086-4.8732-7.3528-12.85-10.213-28.321-16.645-45.009-18.713-4.3662-.54097-14.708-.62019-18.908-.14483-11.571 1.3097-21.344 4.2205-31.412 9.3566-7.8837 4.0217-17.643 11.069-18.993 13.715-.68317 1.3391-.6927 3.4013-.02175 4.7036.66294 1.2868 6.0235 6.5451 7.187 7.05 1.2341.53549 2.8565.51074 3.9592-.06041z" fill="#6e6e6e"/>
   <path d="m120.41 73.853c-6.4238-.89296-11.455-5.8318-12.349-12.124-.58051-4.0821.88198-8.3903 3.854-11.353 5.6198-5.6027 14.347-5.6018 19.908.0019 7.4235 7.481 3.9742 20.114-6.2666 22.95-1.629.45121-3.9627.68922-5.1456.52479zm5.6892-4.872c3.8552-1.8009 6.2282-6.291 5.5452-10.493-.33398-2.0545-1.6117-4.5594-2.936-5.7558-.59909-.54125-1.8779-1.3533-2.8417-1.8046-1.5288-.71582-2.0394-.8205-4.0014-.8205-1.9693 0-2.4702.10359-4.0282.83306-3.4475 1.6142-5.4933 4.5874-5.708 8.2957-.25809 4.4583 2.2662 8.3641 6.5036 10.063 1.8761.7521 5.5068.59753 7.4665-.31788zm17.834-26.442c-1.652-.32753-2.758-.86183-5.0902-2.459-5.2132-3.5703-10.547-5.2058-16.978-5.2058-6.4478 0-11.577 1.5724-16.933 5.1916-2.9509 1.9937-4.2754 2.4814-6.7398 2.4814-3.3946 0-4.4477-.56609-8.5514-4.5968-4.4539-4.3747-5.214-5.7103-5.214-9.1615 0-2.0257.09125-2.4454.87994-4.0475 1.0166-2.0651 2.4926-3.4178 6.9253-6.3471 8.7965-5.8131 18.618-8.695 29.633-8.695 8.7601 0 15.862 1.5727 23.416 5.1857 4.0081 1.917 6.261 3.2567 9.4444 5.6159 3.6058 2.6723 4.8775 5.0731 4.6528 8.7836-.19657 3.2456-.75065 4.1802-4.9193 8.298-1.9919 1.9676-4.1133 3.8252-4.7142 4.1279-.88373.44514-4.0482 1.1821-4.596 1.0703-.0728-.01484-.61965-.12361-1.2153-.24171zm-41.36-5.9081c5.8534-3.8204 11.019-5.5567 17.577-5.9081 6.9498-.37245 14.447 1.6518 20.045 5.4123 2.7967 1.8787 4.0244 2.4303 5.4251 2.4375 1.7706.0091 2.7706-.57396 5.4802-3.1953 3.9486-3.82 4.8065-5.5288 4.0794-8.1259-.44079-1.5744-1.7428-2.8751-5.1443-5.1397-8.5042-5.6614-17.676-8.3945-28.17-8.3945-10.385 0-19.542 2.6872-27.878 8.1812-4.5989 3.0311-5.7055 4.3533-5.7182 6.8327-.0095 1.8574.65065 2.9399 3.6427 5.9729 3.2907 3.3358 4.2987 3.9312 6.4374 3.8026 1.3191-.07932 1.7957-.29097 4.224-1.8758zm-32.506-18.462c-2.4226-.39068-3.9178-1.3703-7.3616-4.8235-4.0958-4.1068-4.7368-5.2937-4.7368-8.7711 0-2.1515.08346-2.5558.84651-4.101.97397-1.9723 2.4919-3.536 6.2963-6.4859 13.846-10.737 29.892-17.187 47.361-19.039 4.7756-.50641 14.01-.50641 18.785 0 17.49 1.8547 33.495 8.2885 47.361 19.039 3.6582 2.8362 5.5849 4.7825 6.4264 6.4917.63407 1.2879.71642 1.7594.71642 4.101 0 2.4954-.05 2.738-.87913 4.2664-1.1343 2.091-6.4736 7.4128-8.4178 8.3904-1.7888.8994-4.2331 1.2879-6.0051.95442-2.0108-.3784-3.6957-1.3154-6.6583-3.7028-10.354-8.3433-22.644-13.319-35.965-14.56-4.15-.3867-11.827-.1807-15.762.42293-12.048 1.8484-23.301 6.8558-32.941 14.659-3.5751 2.8937-5.8348 3.681-9.0683 3.1595zm3.5029-4.1928c.37771-.1436 2.0821-1.3546 3.7875-2.6911 13.209-10.351 28.124-15.569 44.508-15.569 16.289 0 31.436 5.2719 44.45 15.471 1.528 1.1975 3.1592 2.3735 3.6249 2.6133 1.1497.59208 3.3015.55892 4.5216-.06968 1.3346-.68759 6.5631-6.0525 7.0618-7.2461 1.0195-2.44.24345-4.6796-2.4121-6.9609-10.814-9.2898-24.972-16.22-39.154-19.166-10.312-2.1416-22.033-2.4158-32.223-.75385-15.636 2.5502-30.654 9.4349-42.533 19.498-3.4338 2.909-4.1602 5.2653-2.4974 8.1015.81755 1.3945 5.7167 6.1506 6.8373 6.6376 1.0094.43867 3.0483.50662 4.0278.13422z" fill="#4e4e4e"/>
   <path d="m118.46 73.35c-5.9962-1.6126-10.348-7.2199-10.348-13.333 0-3.7842 1.1175-6.593 3.7374-9.3937 3.063-3.2743 7.5475-4.8339 12.039-4.1869 2.9594.42634 5.929 1.9683 7.9357 4.1206 2.6737 2.8677 3.8045 5.6771 3.8045 9.4524 0 5.3937-2.7187 9.8221-7.4608 12.153-3.2977 1.6208-6.5956 2.0242-9.7074 1.1873zm7.7753-4.3245c1.9982-.98371 3.8808-2.9233 4.8425-4.9892.60541-1.3004.70499-1.8659.7091-4.0264.004-2.2763-.0739-2.6797-.82899-4.2734-1.0581-2.2333-2.5814-3.7567-4.8148-4.8148-1.5908-.7537-2.0017-.83377-4.2789-.83377-2.3112 0-2.6643.0715-4.2788.86628-4.0202 1.9791-6.3051 6.305-5.534 10.477 1.2376 6.6949 8.3143 10.484 14.184 7.5946zm-31.009-26.971c-1.9666-.6795-3.1087-1.5538-6.286-4.812-3.5813-3.6725-4.4463-5.3217-4.4463-8.4778 0-3.8778 1.6496-6.1582 7.1095-9.8279 6.5534-4.4047 13.589-7.1909 21.667-8.5806 3.7242-.64064 13.491-.63941 17.187.0021 6.0732 1.0542 10.794 2.5889 16.04 5.2147 3.3132 1.6582 7.8305 4.5648 9.8171 6.3168 2.3695 2.0897 3.5025 5.5202 2.8565 8.6496-.51171 2.4792-1.1748 3.4646-4.7343 7.0358-3.8491 3.8617-5.2483 4.6974-8.2207 4.9101-2.5318.18115-4.125-.38005-7.6189-2.6837-10.494-6.9189-23.088-6.9156-33.474.0086-1.4853.99028-3.2959 2.0073-4.0235 2.26-1.7052.59231-4.1326.58574-5.8738-.01588zm5.7415-4.2774c5.823-3.7142 8.1423-4.8122 12.677-6.002 3.5298-.92602 10.181-1.1506 13.967-.47166 4.853.87042 8.5215 2.348 13.049 5.2559 3.3071 2.1241 4.3021 2.4456 6.1768 1.9959 1.2062-.28937 1.7042-.66467 4.5015-3.3922 3.403-3.3182 4.1178-4.4355 4.127-6.4508.011-2.403-1.1746-3.8602-5.5159-6.7793-5.874-3.9497-12.613-6.5873-20.143-7.8844-3.617-.623-12.438-.60394-16.007.03459-4.137.74005-7.3921 1.6549-10.98 3.086-6.0165 2.3997-12.93 6.8312-14.034 8.9962-.68804 1.3487-.75202 3.4121-.15027 4.8469.47273 1.1271 5.0323 5.9374 6.4741 6.8301 1.9124 1.184 3.9352 1.1615 5.8584-.06519zm-31.939-19.94c-2.0209-.65996-3.3449-1.6586-6.5812-4.9641-3.7503-3.8305-4.3424-4.9624-4.3424-8.3008 0-3.4633 1.145-5.6215 4.4478-8.3837 11.914-9.9639 25.934-16.691 41.21-19.773 6.5655-1.3246 10.353-1.6864 17.842-1.7044 8.3089-.01998 12.786.44343 20.373 2.1088 14.192 3.1151 28.007 9.9583 39.343 19.487 3.4447 2.8957 4.4489 4.8004 4.4321 8.4064-.0146 3.1283-.94543 4.8328-4.6741 8.5594-3.9489 3.9467-5.56 4.7997-9.0652 4.7997-3.0199 0-4.294-.56238-7.8108-3.4475-9.5591-7.8422-21.196-12.852-33.867-14.58-4.4736-.61007-12.763-.60557-17.066.0092604-12.843 1.8355-23.82 6.5501-33.602 14.433-3.538 2.851-4.9222 3.5204-7.5039 3.6287-1.2286.05154-2.4583-.05798-3.136-.27932zm4.192-3.6057c.52819-.14672 2.076-1.169 3.4396-2.2717 5.9291-4.795 14.201-9.5024 21-11.95 14.499-5.2205 30.584-5.6064 45.241-1.0852 8.2036 2.5304 16.628 6.985 23.32 12.331 3.4024 2.718 4.1029 3.0841 5.9222 3.0955 1.9862.01246 3.2121-.75539 6.3763-3.9936 2.9658-3.0352 3.4874-3.9133 3.5106-5.9103.0262-2.2539-.73602-3.3279-4.5223-6.3723-13.295-10.69-28.821-17.19-45.85-19.193-5.2069-.61265-14.439-.6141-19.579-.0031-16.081 1.9118-30.743 7.7589-43.336 17.283-5.7004 4.3108-6.9398 5.7794-6.9287 8.2091.0093 2.0183.72315 3.1317 4.1514 6.4747 3.7005 3.6085 4.728 4.0881 7.2541 3.3864z" fill="#2f2f2f"/>
   <path d="m118.38 73.131c-6.8504-1.9756-11.103-8.5945-9.9052-15.416 1.5837-9.0178 11.298-13.823 19.667-9.7282 2.1176 1.0361 4.5934 3.4717 5.699 5.6065 3.8345 7.4045.72915 15.848-7.0027 19.04-1.3499.5573-2.1825.70186-4.4396.77084-1.7907.05473-3.2189-.04221-4.0182-.27273zm7.4578-3.6729c1.7869-.66093 4.3709-3.1456 5.2588-5.0567 2.7319-5.8797-.41847-12.676-6.6442-14.333-4.6618-1.241-9.4795.9891-11.76 5.4438-.67731 1.3229-.74505 1.7078-.74505 4.2333 0 2.4644.0806 2.95.71329 4.3002 1.4048 2.9976 4.5525 5.4928 7.5947 6.0202 1.6353.28352 3.8144.04631 5.5826-.60772zm-30.162-27.408c-1.8765-.61559-3.291-1.6648-6.237-4.6263-3.5787-3.5975-4.4993-5.0906-4.7757-7.746-.13277-1.2755-.04333-2.0385.41634-3.5519.50942-1.6772.79732-2.138 2.2175-3.5492 3.3874-3.3661 11.18-7.8244 17.11-9.7896 6.0051-1.9899 10.891-2.7709 17.383-2.7787 11.266-.013573 21.236 2.9823 30.58 9.1883 3.5346 2.3477 5.0506 3.7714 5.9309 5.5696.6415 1.3104.7389 1.8225.74086 3.8956.003 3.5591-.75088 4.9324-4.9552 9.0223-4.1526 4.0396-4.9544 4.4587-8.5363 4.4629-2.9506.0034-3.3729-.14914-6.6802-2.4134-5.1522-3.5274-10.607-5.1938-17-5.1938s-11.848 1.6665-17 5.1938c-3.0301 2.0745-3.7873 2.3705-6.2833 2.4562-1.2369.04247-2.5466-.02043-2.9104-.13978zm4.7069-3.7115c.53991-.27736 1.8138-1.0641 2.8308-1.7483 5.5966-3.765 11.445-5.5061 18.524-5.5147 7.1855-.0087 13.01 1.7533 18.873 5.7096 2.4678 1.6652 3.4272 2.0591 4.9974 2.0519 2.0152-.0093 3.1307-.72423 6.4649-4.1435 2.3161-2.3752 3.1549-3.4206 3.372-4.2025.95083-3.4247-.33523-5.4278-5.7718-8.9899-12.676-8.3057-29.16-10.434-43.796-5.6547-5.267 1.72-11.826 5.2108-15.666 8.3374-2.1223 1.7281-2.829 4.7419-1.6723 7.1314.64238 1.327 5.9533 6.5901 7.1939 7.1291 1.2599.54739 3.4772.49696 4.6504-.10576zm-31.609-20.763c-1.7916-.58479-2.6948-1.2805-5.9645-4.5942-3.8555-3.9073-4.5593-5.2058-4.5537-8.4016.0059-3.3428 1.1723-5.5228 4.4034-8.2299 13.642-11.43 29.824-18.488 47.965-20.921 4.8547-.65117 17.625-.65196 22.49-.0014 18.562 2.4823 35.454 10.003 49.013 21.821 1.1959 1.0424 1.8904 1.9236 2.5135 3.1894.77882 1.582.86108 1.9771.86108 4.1359 0 3.371-.56637 4.412-4.639 8.5263-4.1498 4.1923-5.1207 4.7085-8.8547 4.7082-3.1894-.000246-3.9476-.33344-7.8052-3.4301-10.401-8.3496-22.56-13.365-35.678-14.718-4.3015-.44352-13.321-.17359-17.386.52034-11.995 2.0476-22.352 6.6937-31.736 14.236-3.6452 2.93-4.5024 3.3348-7.276 3.4364-1.4014.05133-2.6653-.05354-3.3538-.27827zm5.0802-3.3463c.29466-.1091 1.8123-1.2177 3.3725-2.4635 10.085-8.0526 21.811-13.181 34.589-15.126 3.9147-.59609 12.12-.80471 16.296-.41431 12.033 1.1251 23.072 4.9928 32.917 11.533 1.819 1.2084 4.3293 3.0282 5.5784 4.0441s2.6422 2.0389 3.0957 2.2734c1.1731.60664 3.5964.55342 4.9649-.10904 1.3731-.66469 6.6109-5.9848 7.1408-7.2529.21277-.50923.38686-1.547.38686-2.306 0-2.1943-.72451-3.3315-3.677-5.7712-13.611-11.247-29.3-17.395-46.896-19.248-5.6666-.59698-17.041-1.153-22.319-.3499-15.134 2.3025-28.702 7.9366-40.475 16.807-5.6512 4.2583-7.265 6.1077-7.2754 8.338-.01 2.1362.4493 2.9112 3.6591 6.1739 3.0704 3.121 3.9567 3.7962 5.4617 4.1613.80878.1962 2.2166.06835 3.1816-.28891z" fill="#fff"/>
  </g>
  <path d="m7.6682-688.57v-16.007h27.781v32.015h-27.781zm35.719-15.875v-31.882h28.046v63.765h-28.046zm35.983-15.875v-47.757h27.781v95.515h-27.781zm35.719-15.875v-63.632h28.046v127.26h-28.046z" fill="#fff"/>
  <g transform="translate(-361.98 -743.06)" stroke="#f2f2f2">
   <path d="m181.04 19.475v-38.09l118 .51909.39691 20.77 17.066 16.801-17.066 16.801-.39691 20.77-118 .52916z" fill="#fefefe"/>
   <path d="m181.37 57.708c-.26129-.29678-.33073-8.3255-.33073-38.241 0-32.464.0539-37.919.37798-38.243.32531-.32531 8.5755-.37798 59.214-.37798 45.408 0 58.908.07246 59.153.3175.23604.23604.3175 2.9516.3175 10.583v10.266h7.8241c6.4281 0 7.8916.06744 8.2021.37798.56614.56613.56614 33.603 0 34.169-.31053.31054-1.774.37798-8.2021.37798h-7.8241v10.266c0 7.6318-.0815 10.347-.3175 10.583-.2451.2451-13.744.31521-59.201.30744-50.521-.0086-58.93-.06341-59.214-.38571zm109.21-38.233v-29.104h-100.54v58.208h100.54zm-88.582 21.378c-.45981-.45981-.45981-42.297 0-42.757.45096-.45096 12.672-.45096 13.123 0 .45981.45981.45981 42.297 0 42.757-.45096.45096-12.672.45096-13.123 0zm21.167 0c-.4598-.45981-.4598-42.297 0-42.757.45097-.45096 12.672-.45096 13.123 0 .4598.45981.4598 42.297 0 42.757-.45096.45096-12.672.45096-13.123 0zm21.167 0c-.45981-.45981-.45981-42.297 0-42.757.45096-.45096 12.672-.45096 13.123 0 .45981.45981.45981 42.297 0 42.757-.45096.45096-12.672.45096-13.123 0zm63.182-21.378v-7.9375h-7.4083v15.875h7.4083z" fill="#e3e3e3"/>
   <path d="m181.37 57.665c-.26243-.10613-.33073-7.9961-.33073-38.207v-38.073l.59531-.14349c.32742-.07892 27.027-.11095 59.333-.07119l58.738.07231.26458 20.902 8.2021.1419c4.5111.078047 8.2318.16734 8.2682.19844.0364.031094.0661 7.6765.0661 16.99s-.0298 16.959-.0661 16.99c-.0364.03109-3.7571.12039-8.2682.19844l-8.2021.1419-.13229 10.451-.13229 10.451-59.002.04556c-32.451.02506-59.151-.01463-59.333-.0882zm109.34-38.19v-29.236h-100.81l-.0681 28.972c-.0375 15.935-.0113 29.121.0581 29.303.10064.26421 10.334.31786 50.471.26458l50.345-.06683zm-88.644 21.105c-.0704-.18449-.0973-9.8009-.0597-21.37l.0684-21.034h12.965v42.598l-6.4226.07086c-4.9949.05511-6.4511-.0037-6.5507-.26458zm21.167 0c-.0704-.18449-.0973-9.8009-.0596-21.37l.0684-21.034h12.965v42.598l-6.4226.07086c-4.9949.05511-6.4511-.0037-6.5507-.26458zm21.167 0c-.0704-.18449-.0973-9.8009-.0597-21.37l.0684-21.034h12.965v42.598l-6.4226.07086c-4.9949.05511-6.4511-.0037-6.5507-.26458zm63.244-21.105v-8.0698h-7.6729l-.0702 7.8022c-.0386 4.2912-.0113 7.9556.0606 8.1432.10024.26122 1.015.32388 3.9067.26764l3.7758-.07344z" fill="#c6c6c6"/>
   <path d="m181.37 57.664c-.26243-.10589-.33073-7.9909-.33073-38.183 0-34.452.0396-38.065.41851-38.21.23019-.08833 26.817-.1606 59.081-.1606 45.274 0 58.735.07246 58.98.3175.23604.23603.3175 2.9516.3175 10.583v10.266h7.9159c4.3537 0 8.1042.072268 8.3344.1606.37558.14412.41852 1.892.41852 17.037 0 15.145-.0429 16.893-.41852 17.037-.23018.08833-3.9806.1606-8.3344.1606h-7.9159v10.266c0 7.6318-.0815 10.347-.3175 10.583-.24516.24516-13.703.31274-59.068.29661-32.313-.01149-58.9-.08094-59.081-.15434zm109.47-38.189v-29.369h-101.07v58.737h101.07zm-88.582 21.114c-.45976-.45976-.45976-41.768 0-42.227.4504-.4504 12.144-.4504 12.594 0 .45976.45976.45976 41.768 0 42.227-.4504.4504-12.144.4504-12.594 0zm21.167 0c-.45976-.45976-.45976-41.768 0-42.227.4504-.4504 12.144-.4504 12.594 0 .45976.45976.45976 41.768 0 42.227-.4504.4504-12.144.4504-12.594 0zm21.167 0c-.45975-.45976-.45975-41.768 0-42.227.45041-.4504 12.144-.4504 12.594 0 .45976.45976.45976 41.768 0 42.227-.4504.4504-12.144.4504-12.594 0zm63.182-21.114v-8.2021h-7.9375v16.404h7.9375z" fill="#a5a5a5"/>
   <path d="m181.04 19.475v-38.101l118.4.13346.26458 20.902 16.801.13972v33.852l-16.801.13972-.26458 20.902-118.4.13346zm109.93 0v-29.501h-101.34l-.0681 29.236c-.0375 16.08-.0113 29.386.0581 29.568.10064.26421 10.387.31786 50.736.26458l50.61-.06683zm-88.644 20.841c-.0704-.18459-.0973-9.682-.0597-21.105l.0684-20.77h12.435v42.069l-6.158.07104c-4.783.05518-6.1866-.0039-6.2861-.26458zm21.167 0c-.0704-.18459-.0973-9.682-.0597-21.105l.0684-20.77h12.435v42.069l-6.158.07104c-4.783.05518-6.1866-.0039-6.2861-.26458zm21.167 0c-.0704-.18459-.0973-9.682-.0597-21.105l.06836-20.77h12.435v42.069l-6.158.07104c-4.783.05518-6.1866-.0039-6.2861-.26458zm63.244-20.841v-8.3344h-8.2021l-.0701 8.0671c-.0386 4.4369-.0113 8.2202.0605 8.4074.10031.26142 1.068.32344 4.1712.26732l4.0405-.07307z" fill="#6a6a6a"/>
   <path d="m181.04 19.475v-38.1h58.949c45.497 0 59.022.07246 59.267.3175.23603.23604.3175 2.9516.3175 10.583v10.266h16.933v33.867h-16.933v10.266c0 7.6318-.0815 10.347-.3175 10.583-.24505.24504-13.77.3175-59.267.3175h-58.949zm110.07 0v-29.633h-101.6v59.267h101.6zm-88.582 20.849c-.45971-.45971-.45971-41.239 0-41.698.44979-.44979 11.615-.44979 12.065 0 .4597.45971.4597 41.239 0 41.698-.4498.44979-11.615.44979-12.065 0zm21.167 0c-.45971-.45971-.45971-41.239 0-41.698.44979-.44979 11.615-.44979 12.065 0 .45971.45971.45971 41.239 0 41.698-.44979.44979-11.615.44979-12.065 0zm21.167 0c-.45971-.45971-.45971-41.239 0-41.698.44979-.44979 11.615-.44979 12.065 0 .4597.45971.4597 41.239 0 41.698-.4498.44979-11.615.44979-12.065 0zm63.182-20.849v-8.4667h-8.4667v16.933h8.4667z" fill="#575757"/>
   <path d="m181.04 19.475c0-34.685.0381-38.142.41851-37.996.23019.08833 26.839.1606 59.131.1606h58.713l.1384 21.034h17.066v33.602h-17.066l-.1384 21.034h-58.713c-32.292 0-58.901.07227-59.131.1606-.38043.14599-.41851-3.3109-.41851-37.996zm110.2 0v-29.766h-101.86l-.0681 29.501c-.0375 16.226-.0113 29.65.0581 29.832.10064.26422 10.44.31786 51 .26458l50.874-.06682zm-88.768 0v-20.902h12.171v41.804h-12.171zm21.167 0v-20.902h12.171v41.804h-12.171zm21.167 0v-20.902h12.171v41.804h-12.171zm63.368 0v-8.599h-8.7312l-.07 8.3319c-.0385 4.5826-.0113 8.4848.0604 8.6717.10037.26156 1.1211.32301 4.4356.26702l4.3053-.07273z" fill="#1a1a1a"/>
   <path d="m181.04 19.475c0-25.224.0894-38.1.26458-38.1.14552 0 .79913 1.8563.79913 2.0018 0 .17559 19.221-1.4727 58.203-1.4727h58.738v10.266c0 7.6318.0815 10.347.3175 10.583.40951.40951 16.616.46112 16.616.052917 0-.14552.11907-.26458.26459-.26458.17363 0 .26458 5.8208.26458 16.933 0 11.112-.0909 16.933-.26458 16.933-.14552 0-.26459-.11906-.26459-.26458 0-.4082-16.206-.35659-16.616.05292-.23603.23604-.3175 2.9516-.3175 10.583v10.266h-58.738c-38.982 0-58.737.08899-58.737.26458 0 .14552-.11907.26458-.26459.26458-.17516 0-.26458-12.876-.26458-38.1zm110.28 29.845c.46087-.46087.46087-59.229 0-59.69-.46198-.46197-101.56-.46197-102.02 0-.46087.46087-.46087 59.229 0 59.69.46197.46197 101.56.46197 102.02 0zm-88.582-29.845v-20.637h11.642v41.275h-11.642zm21.167 0v-20.637h11.642v41.275h-11.642zm21.167 0v-20.637h11.642v41.275h-11.642zm63.182 8.6783c.45415-.45415.45415-16.903 0-17.357-.44448-.44448-8.4455-.44448-8.89 0-.45415.45415-.45415 16.903 0 17.357.21981.21981 1.5875.3175 4.445.3175s4.2252-.09769 4.445-.3175z"/>
  </g>
  <g fill="#fff" stroke="#f2f2f2" stroke-linecap="round" stroke-miterlimit="3.9" stroke-width="10">
   <path transform="scale(.26458)" d="m-1298-2755.7c-6.4499-2.7989-25.062-21.56-26.49-26.702-1.1977-4.3111-.8634-9.4301.7931-12.147 4.5802-7.5132 28.481-25.997 50.993-39.436 54.682-32.644 114.57-48.432 177.5-46.791 18.863.4918 31.118 1.688 49.051 4.7879 55.277 9.5554 107.88 33.433 150.72 68.419 10.34 8.4441 13.502 12.093 14.554 16.794 1.619 7.2344-.92922 11.63-14.265 24.606-9.8282 9.5631-11.995 11.032-16.871 11.437-5.2449.4349-8.8997-1.4477-20.685-10.655-38.311-29.931-81.647-48.844-130.15-56.8-9.2457-1.5167-56.742-2.2053-70.423-1.021-17.726 1.5345-44.085 7.7672-63.616 15.042-28.864 10.752-52.256 23.911-77.952 43.854-5.8929 4.5736-11.839 8.6312-13.214 9.017-3.4983.9816-7.0801.8357-9.9385-.4047z"/>
   <path transform="scale(.26458)" d="m-1198.8-2664.3c-2.9639-1.3795-6.3926-4.3091-13.995-11.957-11.68-11.751-13.609-14.852-12.84-20.645.2654-2.0005.9159-4.4753 1.4455-5.4995 2.9321-5.6701 19.697-17.525 36.843-26.052 14.632-7.2771 28.358-12.141 44.376-15.726 14.095-3.1547 18.24-3.4467 43.644-3.074 25.073.3679 26.482.5221 43.382 4.7501 18.327 4.5849 40.44 14.486 56.716 25.395 14.644 9.8151 18.313 14.061 18.485 21.388.1255 5.3605-2.3171 9.0519-13.356 20.185-7.3103 7.3722-10.252 9.8388-13.515 11.331-6.4779 2.9633-9.4768 2.0908-23.772-6.9171-14.319-9.0225-29.976-15.521-44.44-18.446-19.234-3.8887-37.758-3.7536-56.463.4116-16.566 3.6889-30.106 9.4674-45.798 19.545-12.142 7.7979-14.221 8.3309-20.711 5.3099z"/>
   <path transform="scale(.26458)" d="m-1109.2-2545.2c-8.2805-1.0551-18.943-9.4851-23.365-18.473-2.3052-4.6855-2.3496-4.9583-2.3496-14.431 0-9.569.021-9.6957 2.4004-14.255 3.2961-6.3169 9.5476-12.405 15.613-15.205 9.3895-4.334 22.906-3.3994 31.702 2.1921 4.6011 2.925 8.7051 7.4018 11.482 12.525 2.3219 4.2837 2.3758 4.5844 2.6195 14.613l.2488 10.239-2.295 4.6618c-2.8389 5.7666-9.673 12.889-14.911 15.54-2.8255 1.4299-5.5926 2.1194-10.357 2.5807-3.5759.3461-6.6623.5928-6.8587.5481-.1965-.045-1.9643-.286-3.9286-.5363z"/>
   <path transform="scale(.26458)" d="m-1199.1-2656c-2.8837-.6687-3.866-1.0774-5.8198-2.4217-5.5599-3.8252-20.354-18.528-24.557-24.405-.848-1.1857-1.9847-3.4357-2.5261-5-.8474-2.4486-.9861-3.4152-.9971-6.9513-.026-8.4296 3.1043-14.821 9.8937-20.198 14.859-11.768 40.097-25.043 59.674-31.387 38.878-12.599 82.649-12.397 122.01.5627 16.516 5.4379 31.077 12.484 45.466 22 8.7362 5.7782 14.046 10.142 17.436 14.33 4.7848 5.9109 6.2077 11.461 4.7489 18.523-1.1452 5.5444-3.7303 9.0285-15.327 20.657-10.141 10.169-13.99 13.034-19.142 14.248-2.9424.6936-8.1537.6994-10.874.012-3.0053-.7593-7.8184-3.2147-13.021-6.6428-21.339-14.06-38.666-20.16-61.725-21.732-28.075-1.9137-53.255 4.0864-75.061 17.887-16.816 10.642-16.862 10.663-23.75 10.88-2.8495.09-5.0039-.032-6.4286-.362zm9.6567-12.83c1.3716-.6573 5.0722-2.8127 8.2238-4.7899 16.836-10.562 28.912-15.863 44.977-19.743 12.396-2.9941 18.956-3.7359 33.036-3.7359 11.688 0 14.328.1993 23.829 1.7986 17.439 2.9356 33.569 9.328 51.171 20.279 6.5413 4.0698 11.904 6.8663 13.772 7.1816 1.9328.3262 4.7915-.7511 7.7366-2.9155 2.5866-1.901 12.987-12.196 16.388-16.222 3.4085-4.0345 4.3753-5.9925 4.3331-8.7757-.0765-5.0466-3.3852-8.5347-16.251-17.132-16.891-11.287-38.364-20.662-58.301-25.454-12.18-2.9275-13.646-3.0981-31.071-3.6162-15.956-.4745-32.992-.2383-38.393.5321-22.219 3.1695-47.792 12.447-68.071 24.696-9.7154 5.8681-18.872 12.753-20.945 15.748-1.1304 1.6332-1.8464 4.6341-1.6088 6.7426.286 2.537 2.4872 5.2768 11.503 14.318 8.6529 8.6769 10.731 10.433 13.732 11.608 2.3128.9049 3.1127.8348 5.9397-.52z"/>
   <path transform="scale(.26458)" d="m-1198.9-2650.9c-4.9694-.9129-7.7748-2.3503-12.758-6.537-4.1622-3.4967-16.018-15.385-19.427-19.48-5.736-6.8912-7.6853-13.21-6.689-21.683.9997-8.5013 4.5479-14.674 11.77-20.475 11.722-9.4156 32.134-20.881 49.972-28.068 44.057-17.752 97.019-18.196 142.91-1.1991 17.568 6.5075 35.378 16.174 48.929 26.557 12.993 9.9558 17.876 19.876 15.512 31.509-1.2065 5.9364-3.7259 9.8247-12.197 18.824-11.562 12.284-18.599 17.965-24.565 19.832-3.4162 1.0696-10.374 1.3526-14.049.5714-3.161-.6719-8.6703-3.2473-13.481-6.3021-21.345-13.553-33.506-18.488-51.934-21.073-29.253-4.1029-57.144 1.3099-80.23 15.57-15.982 9.8726-17.074 10.479-20.606 11.456-2.1923.6066-10.789.9312-13.154.4968zm191.24-10.737c1.0547-.3946 2.7064-1.2704 3.6706-1.9462 4.214-2.9538 19.951-18.813 22.865-23.043 2.3872-3.4652 3.3735-7.7781 2.665-11.654-1.1924-6.5227-7.1494-12.741-20.751-21.661-25.9-16.986-53.52-26.527-86.776-29.977-6.0138-.6239-29.026-.6212-35 0-24.479 2.5623-43.026 7.7424-64.107 17.906-15.363 7.4063-31.376 17.381-37.115 23.12-4.1034 4.1033-5.7369 8.5439-5.4945 14.936.166 4.3761.9149 6.2016 4.2473 10.353 3.0636 3.8168 14.276 15.022 18.701 18.688 4.5481 3.7684 5.6139 4.1143 12.102 3.9277 5.6624-.1629 5.3395-.023 17.38-7.5556 15.515-9.707 27.283-14.803 41.786-18.094 10.771-2.4442 21.217-3.4127 33.393-3.0959 26.926.7007 44.531 6.2214 69.2 21.701 7.6499 4.8001 11.258 6.6677 13.76 7.1236 2.5132.4578 7.2761.089 9.4734-.7327z"/>
  </g>
  <path transform="scale(.26458)" d="m-1110.5-2528.7c-2.64-.2095-4.6694-.6376-7.4787-1.5777-17.648-5.9055-30.754-20.917-33.958-38.895-.8652-4.8551-.7671-12.627.2192-17.37 2.1714-10.442 6.2425-18.058 13.567-25.38 7.2758-7.2736 14.926-11.417 25.135-13.612 5.257-1.1305 14.56-1.1208 19.889.021 7.0014 1.4999 12.258 3.6322 17.458 7.0818 3.7172 2.4657 10.606 9.2144 13.231 12.961 8.4605 12.077 11.1 28.05 6.9943 42.321-1.2097 4.2047-4.2037 10.296-6.9659 14.172-7.2502 10.174-20.464 18.634-31.075 19.896-4.4071.5244-12.832.7132-17.016.3812zm16.659-9.4454c7.0712-1.4393 12.057-4.165 17.985-9.8325 9.1128-8.7119 13.086-17.656 13.086-29.457 0-18.184-11.702-33.875-29.004-38.889-18.781-5.4425-38.295 3.226-47.535 21.115-2.7291 5.2841-2.9197 6.3864-2.9197 16.881 0 10.42.1833 11.516 2.8557 17.082 2.2073 4.5976 4.7545 8.1524 8.5444 11.924 5.2202 5.1954 12.027 9.3125 18.195 11.005 5.1244 1.4058 12.4 1.4721 18.792.1712z" fill="#f9f9f9" stroke="#f2f2f2" stroke-linecap="round" stroke-miterlimit="3.9" stroke-width="10"/>
  <path transform="scale(.26458)" d="m-1300.3-2738.9c-7.5465-1.3441-10.875-3.6795-23.735-16.655-15.825-15.966-18.009-20.062-17.405-32.628.3531-7.3436.9172-9.7337 3.3522-14.203 3.6256-6.6543 12.431-14.974 28.453-26.885 44.339-32.961 94.707-54.316 151.36-64.174 28.304-4.9252 81.783-4.9488 110.11-.048 54.748 9.4718 105.5 30.552 147.86 61.418 20.158 14.687 28.559 22.357 32.421 29.605 3.0948 5.8064 3.396 7.1388 3.3921 15.006-.006 12.784-1.742 15.942-17.318 31.519-15.587 15.586-18.105 16.963-31.098 16.994-5.0562.012-10.726-.5121-12.6-1.1652-1.8735-.6531-9.0262-5.462-15.895-10.686-38.741-29.466-72.745-45.091-116.31-53.442-24.782-4.7509-69.654-4.4098-94.88.7211-41.284 8.397-74.865 24.136-112.38 52.669-6.9696 5.3012-14.225 10.128-16.123 10.726-5.0959 1.6054-13.923 2.1703-19.206 1.2293zm18.005-11.17c1.7929-1.042 7.9295-5.4973 13.637-9.9006 43.053-33.215 93.448-53.164 143.21-56.691 35.785-2.5362 65.245.3686 96.83 9.5472 32.041 9.3112 58.989 23.104 89.071 45.589 7.8804 5.8901 15.529 11.336 16.996 12.102 4.005 2.0897 13.971 1.731 19.336-.6959 5.4964-2.4864 25.721-22.616 27.855-27.726 1.6605-3.9742 1.9058-14.271.43221-18.147-3.4278-9.0157-35.661-33.741-64.342-49.354-37.193-20.248-83.191-34.047-130.12-39.036-16.569-1.7615-67.337-2.4848-77.782-1.1082-56.455 7.4407-112.93 30.676-158.72 65.303-20.329 15.373-26.664 23.102-26.621 32.479.033 7.1607 2.7588 11.997 12.577 22.314 9.9269 10.431 16.559 15.684 21.757 17.23 4.5599 1.3567 11.747.4939 15.876-1.906z" fill="#f9f9f9" stroke="#f2f2f2" stroke-linecap="round" stroke-miterlimit="3.9" stroke-width="10"/>
 </g>
</svg>
